<?xml version="1.0" encoding="UTF-8"?>
<svg id="Layer_2" data-name="Layer 2" xmlns="http://www.w3.org/2000/svg" viewBox="0 0 83.96 103.77">
  <defs>
    <style>
      .cls-1 {
        fill: #191413;
        stroke-width: 0px;
      }
    </style>
  </defs>
  <g id="Layer_1-2" data-name="Layer 1">
    <g>
      <path class="cls-1" d="M80.02,0H3.94C1.77,0,0,1.76,0,3.94v95.89c0,1.43.78,2.76,2.04,3.45,1.25.69,2.78.65,4.01-.12l34.72-21.9,37.25,21.96c.62.36,1.31.55,2,.55s1.35-.17,1.95-.52c1.23-.7,1.99-2.01,1.99-3.42V3.94c0-2.18-1.76-3.94-3.94-3.94ZM76.07,92.94l-33.37-19.68c-.62-.36-1.31-.55-2-.55-.73,0-1.46.2-2.1.61l-30.72,19.37V7.88h68.19v85.06Z"/>
      <path class="cls-1" d="M31.24,44.31c.29.3.43.72.37,1.14l-1.4,10.13c-.15,1.09.97,1.91,1.96,1.43l9.2-4.46c.38-.18.82-.18,1.2,0l9.2,4.46c.99.48,2.11-.34,1.96-1.43l-1.4-10.13c-.06-.42.08-.84.37-1.14l7.09-7.37c.76-.79.33-2.11-.75-2.31l-10.07-1.8c-.42-.07-.77-.33-.97-.71l-4.82-9.02c-.52-.97-1.91-.97-2.43,0l-4.82,9.02c-.2.37-.56.63-.97.71l-10.07,1.8c-1.08.19-1.51,1.52-.75,2.31l7.09,7.37Z"/>
    </g>
  </g>
</svg>