<?xml version="1.0" encoding="UTF-8"?>
<svg id="Layer_2" data-name="Layer 2" xmlns="http://www.w3.org/2000/svg" viewBox="0 0 104.08 107.91">
  <defs>
    <style>
      .cls-1 {
        fill: #191413;
        stroke-width: 0px;
      }
    </style>
  </defs>
  <g id="Layer_1-2" data-name="Layer 1">
    <g>
      <path class="cls-1" d="M102.41,67.46l-2.45-1.72c-3.6-2.54-5.65-6.8-5.64-11.68v-.2c-.01-4.87,2.05-9.13,5.64-11.67l2.45-1.73c1.66-1.17,2.16-3.42,1.14-5.19l-9.57-16.57c-1.02-1.77-3.21-2.46-5.06-1.61l-2.77,1.28c-4.02,1.85-8.6,1.64-12.25-.57-.51-.31-1.03-.61-1.54-.89-3.69-2.03-6.14-5.87-6.54-10.28l-.28-3.03c-.18-2.03-1.89-3.58-3.92-3.58h-19.14c-2.04,0-3.74,1.55-3.92,3.58l-.28,3.04c-.41,4.41-2.85,8.25-6.54,10.28-.52.28-1.03.58-1.54.89-3.65,2.21-8.24,2.43-12.25.57l-2.78-1.28c-1.86-.86-4.05-.16-5.06,1.61L.53,35.26c-1.02,1.76-.52,4.01,1.14,5.19l2.45,1.72c3.6,2.54,5.65,6.8,5.64,11.88.01,4.87-2.04,9.13-5.64,11.67l-2.45,1.73c-1.66,1.18-2.16,3.42-1.14,5.19l9.57,16.57c1.02,1.77,3.23,2.46,5.06,1.61l2.78-1.28c4-1.86,8.59-1.65,12.25.57.51.31,1.03.61,1.54.89,3.69,2.03,6.14,5.87,6.54,10.28l.28,3.04c.19,2.03,1.89,3.58,3.92,3.58h19.14c2.04,0,3.74-1.55,3.92-3.58l.28-3.03c.41-4.41,2.85-8.25,6.54-10.28.52-.28,1.03-.58,1.54-.89,3.64-2.21,8.22-2.43,12.25-.57l2.77,1.28c1.83.84,4.05.16,5.06-1.61l9.57-16.57c1.02-1.76.52-4.01-1.14-5.19ZM88.95,82.17c-6.28-2.71-13.4-2.27-19.14,1.21-.41.25-.83.49-1.26.73-5.83,3.21-9.74,9.13-10.54,15.92h-11.95c-.79-6.79-4.7-12.72-10.54-15.92-.43-.23-.85-.47-1.26-.72-5.74-3.49-12.86-3.92-19.14-1.21l-5.98-10.36c5.35-4.02,8.51-10.63,8.49-17.94.02-7.26-3.07-13.7-8.49-17.77l5.98-10.36c6.28,2.71,13.4,2.27,19.14-1.21.41-.25.83-.49,1.26-.73,5.83-3.21,9.74-9.13,10.54-15.92h11.95c.8,6.79,4.7,12.71,10.54,15.92.43.23.85.47,1.26.72,5.74,3.49,12.86,3.93,19.14,1.21l5.98,10.36c-5.42,4.07-8.51,10.51-8.49,17.76l3.94.09-3.94.08c-.02,7.15,3.15,13.75,8.49,17.77l-5.98,10.36Z"/>
      <path class="cls-1" d="M52.04,38.79c-8.38,0-15.17,6.79-15.17,15.17s6.79,15.17,15.17,15.17,15.17-6.79,15.17-15.17-6.79-15.17-15.17-15.17Z"/>
    </g>
  </g>
</svg>