<?xml version="1.0" encoding="UTF-8"?>
<svg id="Layer_2" data-name="Layer 2" xmlns="http://www.w3.org/2000/svg" viewBox="0 0 112.37 111.93">
  <defs>
    <style>
      .cls-1 {
        fill: #191413;
        stroke-width: 0px;
      }
    </style>
  </defs>
  <g id="Layer_1-2" data-name="Layer 1">
    <g>
      <path class="cls-1" d="M46.33,0H4.09C1.83,0,0,1.83,0,4.09v42.25c0,2.26,1.83,4.09,4.09,4.09h42.25c2.26,0,4.09-1.83,4.09-4.09V4.09c0-2.26-1.83-4.09-4.09-4.09ZM42.25,42.25H8.17V8.17h34.07v34.07Z"/>
      <path class="cls-1" d="M108.28,0h-42.25c-2.26,0-4.09,1.83-4.09,4.09v42.25c0,2.26,1.83,4.09,4.09,4.09h42.25c2.26,0,4.09-1.83,4.09-4.09V4.09c0-2.26-1.83-4.09-4.09-4.09ZM104.19,42.25h-34.07V8.17h34.07v34.07Z"/>
      <path class="cls-1" d="M46.33,61.51H4.09c-2.26,0-4.09,1.83-4.09,4.09v42.24c0,2.26,1.83,4.09,4.09,4.09h42.25c2.26,0,4.09-1.83,4.09-4.09v-42.24c0-2.26-1.83-4.09-4.09-4.09ZM42.25,103.76H8.17v-34.07h34.07v34.07Z"/>
      <path class="cls-1" d="M108.28,61.51h-42.25c-2.26,0-4.09,1.83-4.09,4.09v42.24c0,2.26,1.83,4.09,4.09,4.09h42.25c2.26,0,4.09-1.83,4.09-4.09v-42.24c0-2.26-1.83-4.09-4.09-4.09ZM104.19,103.76h-34.07v-34.07h34.07v34.07Z"/>
    </g>
  </g>
</svg>