<?xml version="1.0" encoding="UTF-8"?>
<svg id="Layer_2" data-name="Layer 2" xmlns="http://www.w3.org/2000/svg" viewBox="0 0 120.98 96.34">
  <defs>
    <style>
      .cls-1 {
        fill: #191413;
        stroke-width: 0px;
      }
    </style>
  </defs>
  <g id="Layer_1-2" data-name="Layer 1">
    <g>
      <path class="cls-1" d="M36.24,48.56c13.39,0,24.29-10.89,24.29-24.28S49.63,0,36.24,0,11.96,10.89,11.96,24.28s10.89,24.28,24.28,24.28ZM36.24,7.88c9.04,0,16.41,7.36,16.41,16.4s-7.36,16.4-16.41,16.4-16.4-7.36-16.4-16.4S27.2,7.88,36.24,7.88Z"/>
      <path class="cls-1" d="M92.79,57.49c10.59,0,19.21-8.62,19.21-19.21s-8.62-19.21-19.21-19.21-19.21,8.62-19.21,19.21,8.62,19.21,19.21,19.21ZM92.79,26.96c6.24,0,11.33,5.08,11.33,11.33s-5.08,11.33-11.33,11.33-11.33-5.08-11.33-11.33,5.08-11.33,11.33-11.33Z"/>
      <path class="cls-1" d="M92.79,64.21c-9.92,0-18.66,5.16-23.68,12.93-5.77-12.38-18.33-20.99-32.87-20.99C16.26,56.15,0,72.41,0,92.4c0,2.18,1.77,3.94,3.94,3.94h113.1c2.18,0,3.94-1.76,3.94-3.94,0-15.54-12.65-28.19-28.19-28.19ZM8.15,88.46c1.92-13.78,13.79-24.42,28.09-24.42s26.17,10.64,28.09,24.42H8.15ZM72.87,88.46c1.84-9.32,10.07-16.37,19.92-16.37s18.08,7.05,19.92,16.37h-39.84Z"/>
    </g>
  </g>
</svg>