<?xml version="1.0" encoding="UTF-8"?>
<svg id="Layer_2" data-name="Layer 2" xmlns="http://www.w3.org/2000/svg" viewBox="0 0 86.07 122.95">
  <defs>
    <style>
      .cls-1 {
        fill: #191413;
        stroke-width: 0px;
      }
    </style>
  </defs>
  <g id="Layer_1-2" data-name="Layer 1">
    <g>
      <path class="cls-1" d="M43.04,80.93c22.31,0,40.46-18.15,40.46-40.47S65.35,0,43.04,0,2.57,18.15,2.57,40.46s18.16,40.47,40.47,40.47ZM43.04,7.88c17.97,0,32.58,14.62,32.58,32.58s-14.62,32.59-32.58,32.59S10.45,58.43,10.45,40.46,25.07,7.88,43.04,7.88Z"/>
      <path class="cls-1" d="M82.13,92.27H3.94c-2.18,0-3.94,1.76-3.94,3.94v22.79c0,2.18,1.76,3.94,3.94,3.94h78.19c2.18,0,3.94-1.76,3.94-3.94v-22.79c0-2.18-1.77-3.94-3.94-3.94ZM53.21,100.15v14.91h-20.35v-14.91h20.35ZM7.88,100.15h17.1v14.91H7.88v-14.91ZM78.19,115.07h-17.1v-14.91h17.1v14.91Z"/>
      <path class="cls-1" d="M41.83,51.78c-3.16,0-6.08-1.07-8.13-2.28l-1.42,4.93c1.9,1.2,5.18,2.16,8.45,2.26v5.08h4.29v-5.38c5.71-.97,8.79-4.85,8.79-9.27,0-4.68-2.58-7.47-8.41-9.65-4.47-1.75-6.33-2.99-6.33-5.12,0-1.75,1.29-3.65,4.94-3.65s5.85,1.19,7.07,1.8l1.42-4.79c-1.63-.85-3.89-1.65-7.18-1.76v-4.81h-4.29v5.08c-5.23.95-8.39,4.4-8.39,8.89,0,4.8,3.58,7.34,9.04,9.32,3.87,1.42,5.7,2.88,5.7,5.27s-2.25,4.07-5.55,4.07Z"/>
    </g>
  </g>
</svg>