<?xml version="1.0" encoding="UTF-8"?>
<svg id="Layer_2" data-name="Layer 2" xmlns="http://www.w3.org/2000/svg" viewBox="0 0 410.76 120.57">
  <defs>
    <style>
      .cls-1 {
        fill: #637a54;
      }

      .cls-1, .cls-2 {
        stroke-width: 0px;
      }

      .cls-2 {
        fill: #4c443f;
      }
    </style>
  </defs>
  <g id="Layer_1-2" data-name="Layer 1">
    <g>
      <polygon class="cls-1" points="28.79 60.12 25.23 63.69 42.42 83.44 42.42 96.46 0 96.46 0 21.76 42.42 32.64 42.42 71.99 28.79 60.12"/>
      <polygon class="cls-1" points="79.76 48.48 76.2 52.04 93.31 71.7 93.31 96.46 50.88 96.46 50.88 60.62 68.49 40.39 64.93 36.83 50.88 49.06 50.88 10.88 93.31 21.76 93.31 60.27 79.76 48.48"/>
      <polygon class="cls-1" points="144.2 10.88 144.2 96.46 101.77 96.46 101.77 49.07 119.46 28.74 115.9 25.18 101.77 37.48 101.77 0 144.2 10.88"/>
      <g>
        <polygon class="cls-2" points="178.84 96.43 192.69 96.43 192.69 62.23 227.01 62.23 227.01 48.98 192.69 48.98 192.69 25.38 228.22 25.38 228.22 12.14 178.84 12.14 178.84 96.43"/>
        <path class="cls-2" d="M263.14,79.93l-17.94-43.71h-14.21l25.53,59.12-.6,1.2c-1.61,4.17-3.65,7.24-6.14,9.21-2.49,1.97-5.78,2.83-9.87,2.59v12.16c13.81.8,23.6-6.58,29.38-22.16l23.12-62.14h-13.85l-15.41,43.71Z"/>
        <polygon class="cls-2" points="342.97 44.89 342.97 36.22 298.42 36.22 298.42 48.5 325.39 48.5 297.21 87.76 297.21 96.43 344.17 96.43 344.17 84.15 314.91 84.15 342.97 44.89"/>
        <path class="cls-2" d="M396.92,36.22l-15.41,43.71-17.94-43.71h-14.21l25.53,59.12-.6,1.2c-1.61,4.17-3.65,7.24-6.14,9.21-2.49,1.97-5.78,2.83-9.87,2.59v12.16c13.81.8,23.6-6.58,29.38-22.16l23.12-62.14h-13.85Z"/>
      </g>
    </g>
  </g>
</svg>