<?xml version="1.0" encoding="UTF-8"?>
<svg id="Layer_2" data-name="Layer 2" xmlns="http://www.w3.org/2000/svg" viewBox="0 0 139.03 40.81">
  <defs>
    <style>
      .cls-1 {
        fill: #fff;
        stroke-width: 0px;
      }
    </style>
  </defs>
  <g id="Layer_1-2" data-name="Layer 1">
    <g>
      <polygon class="cls-1" points="9.74 20.35 8.54 21.56 14.36 28.24 14.36 32.65 0 32.65 0 7.36 14.36 11.05 14.36 24.37 9.74 20.35"/>
      <polygon class="cls-1" points="27 16.41 25.79 17.61 31.58 24.27 31.58 32.65 17.22 32.65 17.22 20.52 23.18 13.67 21.98 12.47 17.22 16.6 17.22 3.68 31.58 7.36 31.58 20.4 27 16.41"/>
      <polygon class="cls-1" points="48.81 3.68 48.81 32.65 34.45 32.65 34.45 16.61 40.43 9.73 39.23 8.52 34.45 12.69 34.45 0 48.81 3.68"/>
      <g>
        <polygon class="cls-1" points="60.53 32.64 65.22 32.64 65.22 21.06 76.83 21.06 76.83 16.58 65.22 16.58 65.22 8.59 77.24 8.59 77.24 4.11 60.53 4.11 60.53 32.64"/>
        <path class="cls-1" d="M89.06,27.05l-6.07-14.79h-4.81l8.64,20.01-.2.41c-.54,1.41-1.24,2.45-2.08,3.12-.84.67-1.96.96-3.34.88v4.12c4.67.27,7.99-2.23,9.94-7.5l7.83-21.03h-4.69l-5.22,14.79Z"/>
        <polygon class="cls-1" points="116.08 15.19 116.08 12.26 101 12.26 101 16.42 110.13 16.42 100.59 29.7 100.59 32.64 116.49 32.64 116.49 28.48 106.59 28.48 116.08 15.19"/>
        <path class="cls-1" d="M134.34,12.26l-5.22,14.79-6.07-14.79h-4.81l8.64,20.01-.2.41c-.54,1.41-1.24,2.45-2.08,3.12-.84.67-1.96.96-3.34.88v4.12c4.67.27,7.99-2.23,9.94-7.5l7.83-21.03h-4.69Z"/>
      </g>
    </g>
  </g>
</svg>