<?xml version="1.0" encoding="UTF-8"?>
<svg id="Layer_2" data-name="Layer 2" xmlns="http://www.w3.org/2000/svg" viewBox="0 0 99.98 99.98">
  <defs>
    <style>
      .cls-1 {
        fill: #5b5b5b;
        stroke-width: 0px;
      }
    </style>
  </defs>
  <g id="Layer_1-2" data-name="Layer 1">
    <path class="cls-1" d="M99.98,96.39l-26.93-26.93c14.53-16.39,13.96-41.55-1.73-57.24C55.02-4.08,28.51-4.07,12.22,12.22c-16.29,16.29-16.29,42.8,0,59.09,8.14,8.14,18.84,12.21,29.54,12.21,9.91,0,19.82-3.5,27.7-10.48l26.93,26.93,3.58-3.58ZM15.8,67.72C1.49,53.41,1.49,30.12,15.8,15.8c7.16-7.15,16.56-10.73,25.96-10.73s18.8,3.58,25.96,10.73c6.93,6.94,10.75,16.16,10.75,25.96s-3.82,19.02-10.75,25.96c-14.31,14.3-37.59,14.32-51.92,0Z"/>
  </g>
</svg>